<?xml version="1.0" encoding="UTF-8" standalone="no"?>
<svg xmlns="http://www.w3.org/2000/svg"
     xmlns:svg="http://www.w3.org/2000/svg"
     version="1.1"
     width="1.70667in" height="1.70667in"
     viewBox="0 0 512 512">
  <path id="Selection #1"
        fill="none" stroke="black" stroke-width="1"
        d="M 179.00,154.00
           C 179.00,154.00 156.00,154.00 156.00,154.00
             152.86,153.95 149.82,153.96 147.43,151.57
             144.82,148.96 145.02,145.40 145.00,142.00
             145.00,142.00 145.00,104.00 145.00,104.00
             145.00,99.84 144.27,91.49 146.74,88.23
             149.47,84.61 153.97,85.01 158.00,85.00
             158.00,85.00 279.00,85.00 279.00,85.00
             279.00,85.00 305.00,85.00 305.00,85.00
             308.14,85.05 311.18,85.04 313.57,87.43
             316.36,90.22 315.99,94.38 316.00,98.00
             316.00,98.00 316.00,141.00 316.00,141.00
             315.99,145.03 316.39,149.53 312.77,152.26
             310.09,154.29 306.19,153.99 303.00,154.00
             303.00,154.00 282.00,154.00 282.00,154.00
             282.00,154.00 282.00,187.00 282.00,187.00
             282.00,187.00 338.00,187.00 338.00,187.00
             346.59,187.12 349.87,189.10 350.00,198.00
             350.00,198.00 350.00,221.00 350.00,221.00
             350.00,221.00 380.00,221.00 380.00,221.00
             384.26,221.06 387.47,221.19 390.79,224.28
             393.85,227.11 405.73,247.89 408.80,253.00
             412.79,259.65 413.59,263.84 422.00,264.00
             422.00,264.00 429.00,264.00 429.00,264.00
             438.17,263.94 437.45,262.66 442.00,249.00
             442.00,249.00 455.67,208.00 455.67,208.00
             457.46,202.63 460.11,191.01 465.10,188.31
             467.87,186.82 471.91,187.00 475.00,187.00
             475.00,187.00 500.00,187.00 500.00,187.00
             503.28,187.04 507.04,187.07 509.57,189.51
             512.38,192.21 511.99,196.43 512.00,200.00
             512.00,200.00 512.00,374.00 512.00,374.00
             512.00,374.00 512.00,409.00 512.00,409.00
             512.00,412.87 512.73,420.75 510.40,423.77
             507.63,427.36 503.04,426.99 499.00,427.00
             499.00,427.00 473.00,427.00 473.00,427.00
             468.71,426.98 465.61,427.14 462.39,423.77
             460.19,421.48 457.30,415.10 455.75,412.00
             455.75,412.00 444.25,389.00 444.25,389.00
             440.61,381.72 440.02,376.17 431.00,376.00
             431.00,376.00 423.00,376.00 423.00,376.00
             414.46,376.06 415.27,376.97 408.75,390.00
             408.75,390.00 396.75,414.00 396.75,414.00
             395.14,417.23 392.61,423.21 389.79,425.26
             387.00,427.29 383.28,426.99 380.00,427.00
             380.00,427.00 149.00,427.00 149.00,427.00
             136.63,426.98 136.18,421.77 129.67,412.00
             129.67,412.00 114.33,389.00 114.33,389.00
             108.35,380.02 108.24,376.02 97.00,376.00
             97.00,376.00 45.00,376.00 45.00,376.00
             34.85,375.86 34.01,372.06 34.00,363.00
             34.00,363.00 34.00,299.00 34.00,299.00
             34.00,299.00 18.00,299.00 18.00,299.00
             18.00,305.39 19.07,324.20 16.07,328.89
             12.77,334.05 4.92,334.08 1.60,329.77
             -0.29,327.33 0.01,323.92 0.00,321.00
             0.00,321.00 0.00,259.00 0.00,259.00
             0.03,253.56 0.33,248.26 7.00,247.24
             12.79,246.36 16.03,249.71 17.32,255.00
             18.44,259.62 18.00,275.28 18.00,281.00
             18.00,281.00 34.00,281.00 34.00,281.00
             34.00,281.00 34.00,232.00 34.00,232.00
             34.15,223.22 37.62,221.12 46.00,221.00
             46.00,221.00 102.00,221.00 102.00,221.00
             102.00,221.00 102.00,200.00 102.00,200.00
             102.05,189.89 104.89,187.05 115.00,187.00
             115.00,187.00 179.00,187.00 179.00,187.00
             179.00,187.00 179.00,154.00 179.00,154.00 Z
           M 264.00,154.00
           C 264.00,154.00 197.00,154.00 197.00,154.00
             197.00,154.00 197.00,187.00 197.00,187.00
             197.00,187.00 264.00,187.00 264.00,187.00
             264.00,187.00 264.00,154.00 264.00,154.00 Z
           M 102.00,239.00
           C 102.00,239.00 52.00,239.00 52.00,239.00
             52.00,239.00 52.00,358.00 52.00,358.00
             52.00,358.00 102.00,358.00 102.00,358.00
             102.00,358.00 102.00,239.00 102.00,239.00 Z
           M 435.00,282.00
           C 435.00,282.00 419.00,282.00 419.00,282.00
             419.00,282.00 419.00,358.00 419.00,358.00
             419.00,358.00 435.00,358.00 435.00,358.00
             435.00,358.00 435.00,282.00 435.00,282.00 Z" />
</svg>
